<mxfile host="app.diagrams.net" modified="2023-10-26T12:42:07.304Z" agent="Mozilla/5.0 (Windows NT 10.0; Win64; x64) AppleWebKit/537.36 (KHTML, like Gecko) Chrome/118.0.0.0 Safari/537.36 Edg/118.0.2088.61" etag="b3hmzzua2MsPHKg3p4Fu" version="22.0.8" type="device">
  <diagram name="Page-1" id="k8yYvZ7ieIxEiyxM268C">
    <mxGraphModel dx="1426" dy="803" grid="1" gridSize="10" guides="1" tooltips="1" connect="1" arrows="1" fold="1" page="1" pageScale="1" pageWidth="827" pageHeight="1169" math="0" shadow="0">
      <root>
        <mxCell id="0" />
        <mxCell id="1" parent="0" />
        <mxCell id="j4e40pDRE9V6yi5gh8P8-1" value="Вхідні дані: a,b,c,d - числа для виразу&lt;br&gt;Вихідні дані: result - результат обчислення виразу&lt;br&gt;" style="rounded=0;whiteSpace=wrap;html=1;" vertex="1" parent="1">
          <mxGeometry x="70" y="50" width="220" height="80" as="geometry" />
        </mxCell>
        <mxCell id="j4e40pDRE9V6yi5gh8P8-4" style="edgeStyle=orthogonalEdgeStyle;rounded=0;orthogonalLoop=1;jettySize=auto;html=1;entryX=0.5;entryY=0;entryDx=0;entryDy=0;" edge="1" parent="1" source="j4e40pDRE9V6yi5gh8P8-2" target="j4e40pDRE9V6yi5gh8P8-3">
          <mxGeometry relative="1" as="geometry" />
        </mxCell>
        <mxCell id="j4e40pDRE9V6yi5gh8P8-2" value="Старт" style="strokeWidth=2;html=1;shape=mxgraph.flowchart.start_1;whiteSpace=wrap;" vertex="1" parent="1">
          <mxGeometry x="325" y="80" width="190" height="60" as="geometry" />
        </mxCell>
        <mxCell id="j4e40pDRE9V6yi5gh8P8-6" style="edgeStyle=orthogonalEdgeStyle;rounded=0;orthogonalLoop=1;jettySize=auto;html=1;entryX=0.5;entryY=0;entryDx=0;entryDy=0;" edge="1" parent="1" source="j4e40pDRE9V6yi5gh8P8-3" target="j4e40pDRE9V6yi5gh8P8-5">
          <mxGeometry relative="1" as="geometry" />
        </mxCell>
        <mxCell id="j4e40pDRE9V6yi5gh8P8-3" value="Вхід: a, b, c, d" style="shape=parallelogram;html=1;strokeWidth=2;perimeter=parallelogramPerimeter;whiteSpace=wrap;rounded=1;arcSize=12;size=0.23;" vertex="1" parent="1">
          <mxGeometry x="320" y="170" width="200" height="60" as="geometry" />
        </mxCell>
        <mxCell id="j4e40pDRE9V6yi5gh8P8-8" style="edgeStyle=orthogonalEdgeStyle;rounded=0;orthogonalLoop=1;jettySize=auto;html=1;entryX=0.5;entryY=0;entryDx=0;entryDy=0;" edge="1" parent="1" source="j4e40pDRE9V6yi5gh8P8-5" target="j4e40pDRE9V6yi5gh8P8-7">
          <mxGeometry relative="1" as="geometry" />
        </mxCell>
        <mxCell id="j4e40pDRE9V6yi5gh8P8-5" value="numerator = sqrt(53.0 / a) + d - 4 * a&lt;br&gt;denuminator =&amp;nbsp; b + a * c&lt;br&gt;result = numerator / denumenator" style="rounded=0;whiteSpace=wrap;html=1;" vertex="1" parent="1">
          <mxGeometry x="321" y="260" width="198" height="60" as="geometry" />
        </mxCell>
        <mxCell id="j4e40pDRE9V6yi5gh8P8-10" style="edgeStyle=orthogonalEdgeStyle;rounded=0;orthogonalLoop=1;jettySize=auto;html=1;" edge="1" parent="1" source="j4e40pDRE9V6yi5gh8P8-7" target="j4e40pDRE9V6yi5gh8P8-9">
          <mxGeometry relative="1" as="geometry" />
        </mxCell>
        <mxCell id="j4e40pDRE9V6yi5gh8P8-7" value="Вихід: result" style="shape=parallelogram;html=1;strokeWidth=2;perimeter=parallelogramPerimeter;whiteSpace=wrap;rounded=1;arcSize=12;size=0.23;" vertex="1" parent="1">
          <mxGeometry x="320" y="350" width="200" height="60" as="geometry" />
        </mxCell>
        <mxCell id="j4e40pDRE9V6yi5gh8P8-9" value="Кінець" style="strokeWidth=2;html=1;shape=mxgraph.flowchart.start_1;whiteSpace=wrap;" vertex="1" parent="1">
          <mxGeometry x="325" y="440" width="190" height="60" as="geometry" />
        </mxCell>
      </root>
    </mxGraphModel>
  </diagram>
</mxfile>
